%FSTAX24Y24*%
%MOIN*%
%IN AUX6.GBR *%
%ADD10C,0.0050*%
D10*X013976D02*G01X001575D01*X001328Y000019D01*X001088Y000077D01*
X00086Y000172D01*X000649Y000301D01*X000461Y000461D01*X000301Y000649D01*
X000172Y00086D01*X000077Y001088D01*X000019Y001328D01*X0Y001575D01*
Y015354D01*X000019Y015601D01*X000077Y015841D01*X000172Y016069D01*
X000301Y01628D01*X000461Y016468D01*X000649Y016628D01*X00086Y016757D01*
X001088Y016852D01*X001328Y01691D01*X001575Y016929D01*X026378D01*
X026624Y01691D01*X026865Y016852D01*X027093Y016757D01*X027304Y016628D01*
X027492Y016468D01*X027652Y01628D01*X027781Y016069D01*X027876Y015841D01*
X027933Y015601D01*X027953Y015354D01*Y001575D01*X027933Y001328D01*
X027876Y001088D01*X027781Y00086D01*X027652Y000649D01*X027492Y000461D01*
X027304Y000301D01*X027093Y000172D01*X026865Y000077D01*
X026624Y000019D01*X026378Y0D01*X013976D01*X020866Y00374D02*Y004173D01*
X020883Y004283D01*X020934Y004382D01*X021012Y00446D01*X021111Y00451D01*
X02122Y004528D01*X02133Y00451D01*X021429Y00446D01*X021507Y004382D01*
X021557Y004283D01*X021575Y004173D01*Y003307D01*X021557Y003198D01*
X021507Y003099D01*X021429Y00302D01*X02133Y00297D01*X02122Y002953D01*
X021111Y00297D01*X021012Y00302D01*X020934Y003099D01*X020883Y003198D01*
X020866Y003307D01*Y00374D01*X017402D02*Y004173D01*X017419Y004283D01*
X017469Y004382D01*X017548Y00446D01*X017646Y00451D01*X017756Y004528D01*
X017865Y00451D01*X017964Y00446D01*X018043Y004382D01*X018093Y004283D01*
X01811Y004173D01*Y003307D01*X018093Y003198D01*X018043Y003099D01*
X017964Y00302D01*X017865Y00297D01*X017756Y002953D01*X017646Y00297D01*
X017548Y00302D01*X017469Y003099D01*X017419Y003198D01*X017402Y003307D01*
Y00374D01*
M02*