M48
FMAT,2
INCH,LZ
T1C0.0950
T2C0.0472
T3C0.0120
T4C0.0200
T5C0.0350
T6C0.0453
T7C0.0512
T8C0.0709
T9C0.1260
%
T1
X008465Y002953
X008465Y013976
X026575Y008465
T2
X019685Y016142
X019685Y014173
T3
X016661Y010149
X020161Y010249
X015675Y009303
X015675Y00891
X016856Y009303
X016856Y00891
X007571Y004528
X007571Y012598
X017726Y008026
X015675Y009106
X016875Y009106
X006487Y007751
X006487Y010851
X009661Y008449
X008575Y008551
X010861Y007149
T4
X021457Y01122
T5
X018413Y010917
X017413Y010917
X018413Y011917
X017413Y011917
T6
X018504Y000984
X019488Y000984
X020472Y000984
T7
X019409Y012874
X018268Y014173
X020315Y012953
X017913Y016142
X020906Y01374
X021457Y012953
X021693Y016142
X01752Y015157
T8
X02122Y00374
X017756Y00374
T9
X013976Y002953
X002953Y013976
X002953Y002953
X013976Y013976
X025Y013976
X025Y002953
M30
