%FSTAX24Y24*%
%MOIN*%
%IN LAYER1.GBR *%
%ADD10C,0.0010*%
%ADD11C,0.0039*%
%ADD12C,0.0050*%
%ADD13C,0.0064*%
%ADD14C,0.0080*%
%ADD15C,0.0120*%
%ADD16C,0.0140*%
%ADD17C,0.0160*%
%ADD18C,0.0180*%
%ADD19C,0.0193*%
%ADD20C,0.0199*%
%ADD21C,0.0200*%
%ADD22C,0.0220*%
%ADD23C,0.0240*%
%ADD24C,0.0400*%
%ADD25C,0.0500*%
%ADD26C,0.0520*%
%ADD27C,0.0550*%
%ADD28C,0.0560*%
%ADD29C,0.0660*%
%ADD30C,0.0680*%
%ADD31C,0.0721*%
%ADD32C,0.0787*%
%ADD33C,0.0810*%
%ADD34C,0.0830*%
%ADD35C,0.0906*%
%ADD36C,0.0947*%
%ADD37C,0.0970*%
%ADD38C,0.0990*%
%ADD39C,0.1066*%
%ADD40C,0.4724*%
%ADD41C,0.4884*%
%ADD42O,0.1339X0.2165*%
%ADD43O,0.1499X0.2325*%
%ADD44R,0.0236X0.0472*%
%ADD45R,0.0350X0.0310*%
%ADD46R,0.0396X0.0632*%
%ADD47R,0.0413X0.0425*%
%ADD48R,0.0425X0.0413*%
%ADD49R,0.0520X0.0520*%
%ADD50R,0.0573X0.0585*%
%ADD51R,0.0585X0.0573*%
%ADD52R,0.0610X0.0570*%
%ADD53R,0.0661X0.0520*%
%ADD54R,0.0673X0.0685*%
%ADD55R,0.0680X0.0680*%
%ADD56R,0.0685X0.0673*%
%ADD57R,0.0787X0.0591*%
%ADD58R,0.0821X0.0680*%
%ADD59R,0.1047X0.0851*%
D12*X013705Y007017D02*G01X014002D01*X015609Y008623D01*Y009548D01*
X011902D01*X011802Y009448D01*Y007017D01*X013705D01*G36*G01X014002D01*
X015609Y008623D01*Y009548D01*X011902D01*X011802Y009448D01*Y007017D01*
X013705D01*G37*
%LPC*%
D54*X007571Y012008D03*D24*Y012598D03*D54*X00689Y012008D03*D41*
X002953Y013976D03*D59*Y010827D03*D54*X007571Y005118D03*D24*Y004528D03*
D54*X00689Y005118D03*D41*X002953Y002953D03*D59*Y006102D03*D54*
X0221Y01122D03*D29*X021457D03*D54*X022781D03*D41*X025Y013976D03*D56*
X006299Y009305D03*Y006156D03*D24*X008575Y008551D03*D54*
X01702Y006496D03*D50*X017467Y000984D03*D36*X018504D03*D54*
X010524Y006496D03*D51*X011417D03*D24*X016661Y010149D03*D56*
X006299Y006837D03*D24*X006487Y007751D03*D56*X01837Y006476D03*X01912D03*
X01987D03*D51*X02087D03*D43*X02122Y00374D03*D52*X017126Y007303D03*
Y008051D03*D24*X017726Y008026D03*D28*X022244Y000984D03*X008465D03*
Y015945D03*D37*X019409Y012874D03*D55*X018413Y010917D03*D39*
X018268Y014173D03*D51*X011417Y009646D03*D54*X010524D03*D37*
X020315Y012953D03*D24*X020161Y010249D03*D39*X017913Y016142D03*D30*
X017413Y011917D03*D38*X020906Y01374D03*X021457Y012953D03*D41*
X025Y002953D03*D51*X02187Y007157D03*D24*X016875Y009106D03*D39*
X021693Y016142D03*X01752Y015157D03*D51*X017081Y013788D03*D31*
X019685Y016142D03*Y014173D03*D20*X008465Y002953D03*Y013976D03*
X026575Y008465D03*D51*X017081Y013107D03*D52*X016339Y007677D03*D54*
Y006496D03*D30*X017413Y010917D03*D51*X005512Y007177D03*D50*
X007874Y008071D03*D46*X007835Y007402D03*D51*X011417Y007177D03*D24*
X010861Y007149D03*D50*X016785Y000984D03*D41*X013976Y002953D03*D51*
X005512Y010327D03*D50*X007874Y01122D03*D46*X007835Y010551D03*D51*
X02187Y006476D03*X02087Y007157D03*D56*X01987D03*X01912D03*X01837D03*
D50*X008555Y008071D03*D51*X009055Y007177D03*Y008965D03*D50*
X008555Y01122D03*D51*X011417Y010327D03*D58*X013975Y010784D03*D41*
X013976Y013976D03*D46*X007087Y009646D03*D51*X005512D03*D59*X002953D03*
D46*X007461D03*X007835D03*D51*X009055D03*D54*X009843D03*D46*
X007461Y010551D03*X007087D03*D24*X006487Y010851D03*D56*
X006299Y009986D03*D46*X007087Y006496D03*D51*X005512D03*D59*
X002953Y007283D03*D46*X007461Y006496D03*X007835D03*D51*X009055D03*D54*
X009843D03*D46*X007461Y007402D03*X007087D03*D24*X009661Y008449D03*D22*
X015675Y009106D03*D36*X019488Y000984D03*X020472D03*D43*
X017756Y00374D03*D30*X018413Y011917D03*D22*X015675Y009303D03*Y00891D03*
D24*X016856Y009303D03*Y00891D03*D19*X000715Y011285D02*
G01X000779Y01122D01*X000394D01*Y011156D01*Y01122D02*Y011285D01*
X000779Y010963D02*Y010706D01*X000394Y010899D01*X000715Y01032D02*
X000779Y010385D01*Y010513D01*X000715Y010578D01*X000458D01*
X000394Y010513D01*Y010385D01*X000458Y01032D01*X000715D01*
X000651Y010449D02*X000522D01*X000715Y009935D02*X000779Y009999D01*
Y010128D01*X000715Y010192D01*X000458D01*X000394Y010128D01*Y009999D01*
X000458Y009935D01*X000715D01*X000651Y010063D02*X000522D01*
X000587Y009806D02*Y009549D01*X000394Y00942D02*X000779Y009292D01*
X000538Y009212D01*X000394Y009163D01*X000538Y009212D02*Y009372D01*
X000779Y009035D02*X000458D01*X000394Y00897D01*Y008842D01*
X000458Y008778D01*X000779D01*X000715Y008392D02*X000779Y008456D01*
Y008649D01*X000394D01*Y008456D01*X000458Y008392D01*X000715D01*
X000394Y008199D02*X000779D01*X000715Y007749D02*X000779Y007813D01*
Y007942D01*X000715Y008006D01*X000458D01*X000394Y007942D01*Y007813D01*
X000458Y007749D01*X000715D01*Y007556D02*X000779Y007492D01*X000394D01*
Y007428D01*Y007492D02*Y007556D01*X000587Y007235D02*Y006978D01*
X000715Y006592D02*X000779Y006656D01*Y006785D01*X000715Y006849D01*
X000458D01*X000394Y006785D01*Y006656D01*X000458Y006592D01*X000715D01*
X000651Y00672D02*X000522D01*X000394Y006367D02*Y006335D01*X000426D01*
Y006367D01*X000394D01*X000715Y006013D02*X000779Y005949D01*X000394D01*
Y005885D01*Y005949D02*Y006013D01*X000715Y005435D02*X000779Y005499D01*
Y005628D01*X000715Y005692D01*X000458D01*X000394Y005628D01*Y005499D01*
X000458Y005435D01*X000715D01*X000651Y005563D02*X000522D01*D15*
X007571Y012008D02*Y012598D01*X00689Y012008D02*X004868D01*
X002953Y013976D01*D27*Y010827D01*D15*X007571Y005118D02*Y004528D01*
X00689Y005118D02*X005065D01*X002953Y002953D01*D27*Y006102D01*D21*
X0221Y01122D02*X021457D01*X022781D02*X023228D01*X025Y013976D01*D15*
X006299Y009305D02*X00647Y009265D01*X00735D01*X007461Y009388D01*
Y009368D01*D17*Y009349D01*X007661Y009149D01*X008261D01*
X008461Y008949D01*X008455Y008471D01*X008215D01*D15*Y006951D01*D17*
X007561Y006949D01*X007461Y006849D01*Y006518D01*D15*Y006188D01*
X00736Y006115D01*X0065D01*X006299Y006156D01*D23*X008455Y008471D02*
X008575Y008551D01*D15*X01702Y006496D02*Y00587D01*X016826Y005676D01*
Y002126D01*X017376Y001576D01*D23*X017476Y001476D01*D15*
X017467Y000984D01*X018504D01*X010524Y006496D02*X011417D01*X013808D01*
X016061Y008749D01*Y009749D01*X016461Y010149D01*X016661D01*
X006299Y006837D02*Y00723D01*X006475Y007406D01*X007082D01*
X006784Y007404D01*D23*X006487Y007402D01*D15*Y007751D01*D16*
X01837Y006476D02*X01912D01*X01987D01*D21*X019843Y006063D01*X020827D01*
D23*X02087Y006476D01*D21*X020866Y005827D01*X02122Y005082D01*Y00374D01*
D15*X017126Y007303D02*Y008051D01*X017702D01*D23*X017726Y008026D01*D15*
X019409Y012874D02*Y011913D01*X018413Y010917D01*D23*X018268Y014173D02*
X018261Y014166D01*D15*Y013549D01*X018161Y013449D01*D23*X016661D01*D15*
X016561Y013349D01*Y012849D01*X016361Y012649D01*Y012149D01*
X013917Y009746D01*X011817D01*X011717Y009646D01*X011417D01*X010524D01*
X020315Y012953D02*X019961Y012149D01*Y010449D01*X020161Y010249D01*D23*
D15*X017913Y016142D02*X018976Y015079D01*Y014776D01*Y01348D01*
X017413Y011917D01*D27*X021457Y012953D02*X020626Y012122D01*D23*
Y012076D01*D27*Y010976D01*X021526Y010076D01*Y009055D01*Y008576D01*
X022402Y007795D01*Y007205D01*D23*X024963Y003013D01*X025Y002953D01*D27*
X024963Y003013D02*X022476Y007126D01*D23*Y007157D01*D21*X02187D01*D23*
X021526Y009055D02*X021475Y009106D01*X021487Y008651D01*X016887D01*
X016875Y009106D01*D15*X01752Y015157D02*X017081Y014719D01*Y013788D01*
Y013107D02*Y012781D01*X016613Y012417D01*Y011317D01*X017013Y010917D01*
D23*X017055D01*D15*Y010065D01*X016955Y009965D01*X016339Y009348D01*
Y007677D01*Y006496D01*D23*D15*X017055Y010917D02*X017355D01*D23*
X017413D01*D15*X005512Y007177D02*Y007539D01*X006393Y00842D01*
X007793D01*X007874Y008339D01*Y008071D01*D23*X007835Y008031D01*D15*
Y007402D01*D16*X011417Y007177D02*X010889D01*D23*X010861Y007149D01*D15*
X016785Y000984D02*X015945D01*X013976Y002953D01*X005512Y010327D02*
Y011239D01*X005893Y01162D01*X007793D01*X007874Y011539D01*Y01122D01*D23*
X007835Y011181D01*D15*Y010551D01*D16*X02187Y006476D02*
X021375Y006471D01*D15*Y007151D01*X020795Y007157D01*X02087D01*D16*
X01987D01*X01912D01*X01837D01*X017919Y007136D01*X017719Y006976D01*D15*
X016679D01*D23*Y006136D01*X016639Y006096D01*D16*X010223D01*D23*
X010183Y006136D01*Y007136D01*X010143Y007176D01*D16*X009055Y00719D01*
X009055Y008071D01*X008555D01*D23*X009055Y00719D02*Y007177D01*D16*
Y008965D01*X010103Y008976D01*D23*X010183Y009056D01*Y011136D01*
X010103Y011216D01*D16*X008555Y01122D01*X011417Y010327D02*X011939D01*
D23*X011961Y010349D01*D16*X012395Y010784D01*X013975D01*D27*Y013975D01*
D23*X013976Y013976D01*D14*X007087Y009646D02*X005512D01*D15*X002756D01*
D23*X002953D01*D15*X007835D02*X009055D01*X009843D01*X007087Y010551D02*
X006487D01*Y010851D01*D23*Y010551D01*D15*X006299Y010364D01*Y009986D01*
D14*X007087Y006496D02*X005512D01*D15*X004586D01*X003798Y007283D01*
X002953D01*X007835Y006496D02*X009055D01*X009843D01*D23*
X009661Y008449D02*X012161D01*X012818Y009106D01*X013975D01*X015675D01*
D14*X022323Y007283D02*X021966Y007173D01*X021386Y008493D02*
X021106Y008603D01*X021156Y008673D02*X021366Y008893D01*
X017086Y008683D02*X016906Y008893D01*X023866Y005163D02*
X024286Y004983D01*X023616Y004963D02*X023526Y004563D01*
X023536Y004953D02*X023546Y004673D01*X023646Y011953D02*
X023626Y012163D01*X023676Y011933D02*X023966Y011963D01*D22*
X013962Y011404D02*X013542Y011883D01*X014016Y011362D02*
X014398Y011913D01*X002791Y01116D02*X002511Y011878D01*X003024Y011036D02*
X003528Y011973D01*X00309Y005699D02*X003555Y004889D01*X002854Y005796D02*
X002406Y004983D01*X015669Y0089D02*X012723Y008892D01*X01554Y008707D02*
X012491Y008713D01*X015683Y009289D02*X014505Y009299D01*
X014474Y009137D01*X015578Y008701D02*X01568Y008895D01*X015688Y009312D01*
X013852Y01101D02*X013428Y011848D01*X01411Y011034D02*X01456Y011928D01*
D18*X008215Y006951D02*Y007711D01*
%LPD*%
D47*X007571Y012008D03*D23*Y012598D03*D47*X00689Y012008D03*D40*
X002953Y013976D03*D57*Y010827D03*D47*X007571Y005118D03*D23*Y004528D03*
D47*X00689Y005118D03*D40*X002953Y002953D03*D57*Y006102D03*D47*
X0221Y01122D03*D25*X021457D03*D47*X022781D03*D40*X025Y013976D03*D48*
X006299Y009305D03*Y006156D03*D23*X008575Y008551D03*D47*
X01702Y006496D03*X017467Y000984D03*D32*X018504D03*D47*
X010524Y006496D03*D48*X011417D03*D23*X016661Y010149D03*D48*
X006299Y006837D03*D23*X006487Y007751D03*D48*X01837Y006476D03*X01912D03*
X01987D03*X02087D03*D42*X02122Y00374D03*D45*X017126Y007303D03*
Y008051D03*D23*X017726Y008026D03*D24*X022244Y000984D03*X008465D03*
Y015945D03*D33*X019409Y012874D03*D49*X018413Y010917D03*D35*
X018268Y014173D03*D48*X011417Y009646D03*D47*X010524D03*D33*
X020315Y012953D03*D23*X020161Y010249D03*D35*X017913Y016142D03*D26*
X017413Y011917D03*D34*X020906Y01374D03*X021457Y012953D03*D40*
X025Y002953D03*D48*X02187Y007157D03*D23*X016875Y009106D03*D35*
X021693Y016142D03*X01752Y015157D03*D48*X017081Y013788D03*D10*
X019685Y016142D03*Y014173D03*D11*X008465Y002953D03*Y013976D03*
X026575Y008465D03*D48*X017081Y013107D03*D45*X016339Y007677D03*D47*
Y006496D03*D26*X017413Y010917D03*D48*X005512Y007177D03*D47*
X007874Y008071D03*D44*X007835Y007402D03*D48*X011417Y007177D03*D23*
X010861Y007149D03*D47*X016785Y000984D03*D40*X013976Y002953D03*D48*
X005512Y010327D03*D47*X007874Y01122D03*D44*X007835Y010551D03*D48*
X02187Y006476D03*X02087Y007157D03*X01987D03*X01912D03*X01837D03*D47*
X008555Y008071D03*D48*X009055Y007177D03*Y008965D03*D47*
X008555Y01122D03*D48*X011417Y010327D03*D53*X013975Y010784D03*D40*
X013976Y013976D03*D44*X007087Y009646D03*D48*X005512D03*D57*X002953D03*
D44*X007461D03*X007835D03*D48*X009055D03*D47*X009843D03*D44*
X007461Y010551D03*X007087D03*D23*X006487Y010851D03*D48*
X006299Y009986D03*D44*X007087Y006496D03*D48*X005512D03*D57*
X002953Y007283D03*D44*X007461Y006496D03*X007835D03*D48*X009055D03*D47*
X009843D03*D44*X007461Y007402D03*X007087D03*D23*X009661Y008449D03*D53*
X013975Y009106D03*D23*X015675D03*D32*X019488Y000984D03*X020472D03*D42*
X017756Y00374D03*D26*X018413Y011917D03*D23*X015675Y009303D03*Y00891D03*
X016856Y009303D03*Y00891D03*D13*X000715Y011285D02*X000779Y01122D01*
X000394D01*Y011156D01*Y01122D02*Y011285D01*X000779Y010963D02*
Y010706D01*X000394Y010899D01*X000715Y01032D02*X000779Y010385D01*
Y010513D01*X000715Y010578D01*X000458D01*X000394Y010513D01*Y010385D01*
X000458Y01032D01*X000715D01*X000651Y010449D02*X000522D01*
X000715Y009935D02*X000779Y009999D01*Y010128D01*X000715Y010192D01*
X000458D01*X000394Y010128D01*Y009999D01*X000458Y009935D01*X000715D01*
X000651Y010063D02*X000522D01*X000587Y009806D02*Y009549D01*
X000394Y00942D02*X000779Y009292D01*X000538Y009212D01*X000394Y009163D01*
X000538Y009212D02*Y009372D01*X000779Y009035D02*X000458D01*
X000394Y00897D01*Y008842D01*X000458Y008778D01*X000779D01*
X000715Y008392D02*X000779Y008456D01*Y008649D01*X000394D01*Y008456D01*
X000458Y008392D01*X000715D01*X000394Y008199D02*X000779D01*
X000715Y007749D02*X000779Y007813D01*Y007942D01*X000715Y008006D01*
X000458D01*X000394Y007942D01*Y007813D01*X000458Y007749D01*X000715D01*
Y007556D02*X000779Y007492D01*X000394D01*Y007428D01*Y007492D02*
Y007556D01*X000587Y007235D02*Y006978D01*X000715Y006592D02*
X000779Y006656D01*Y006785D01*X000715Y006849D01*X000458D01*
X000394Y006785D01*Y006656D01*X000458Y006592D01*X000715D01*
X000651Y00672D02*X000522D01*X000394Y006367D02*Y006335D01*X000426D01*
Y006367D01*X000394D01*X000715Y006013D02*X000779Y005949D01*X000394D01*
Y005885D01*Y005949D02*Y006013D01*X000715Y005435D02*X000779Y005499D01*
Y005628D01*X000715Y005692D01*X000458D01*X000394Y005628D01*Y005499D01*
X000458Y005435D01*X000715D01*X000651Y005563D02*X000522D01*D15*
X007571Y012008D02*Y012598D01*X00689Y012008D02*X004868D01*
X002953Y013976D01*D27*Y010827D01*D15*X007571Y005118D02*Y004528D01*
X00689Y005118D02*X005065D01*X002953Y002953D01*D27*Y006102D01*D21*
X0221Y01122D02*X021457D01*X022781D02*X023228D01*X025Y013976D01*D15*
X006299Y009305D02*X00647Y009265D01*X00735D01*X007461Y009388D01*
Y009368D01*D17*Y009349D01*X007661Y009149D01*X008261D01*
X008461Y008949D01*X008455Y008471D01*X008215D01*D15*Y006951D01*D17*
X007561Y006949D01*X007461Y006849D01*Y006518D01*D15*Y006188D01*
X00736Y006115D01*X0065D01*X006299Y006156D01*D14*X008455Y008471D02*
X008575Y008551D01*D15*X01702Y006496D02*Y00587D01*X016826Y005676D01*
Y002126D01*X017376Y001576D01*D14*X017476Y001476D01*D15*
X017467Y000984D01*X018504D01*X010524Y006496D02*X011417D01*X013808D01*
X016061Y008749D01*Y009749D01*X016461Y010149D01*X016661D01*
X006299Y006837D02*Y00723D01*X006475Y007406D01*X007082D01*
X006784Y007404D01*D14*X006487Y007402D01*D15*Y007751D01*D16*
X01837Y006476D02*X01912D01*X01987D01*D21*X019843Y006063D01*X020827D01*
D14*X02087Y006476D01*D21*X020866Y005827D01*X02122Y005082D01*Y00374D01*
D15*X017126Y007303D02*Y008051D01*X017702D01*D14*X017726Y008026D01*D15*
X019409Y012874D02*Y011913D01*X018413Y010917D01*D14*X018268Y014173D02*
X018261Y014166D01*D15*Y013549D01*X018161Y013449D01*D14*X016661D01*D15*
X016561Y013349D01*Y012849D01*X016361Y012649D01*Y012149D01*
X013917Y009746D01*X011817D01*X011717Y009646D01*X011417D01*X010524D01*
X020315Y012953D02*X019961Y012149D01*Y010449D01*X020161Y010249D01*D14*
D15*X017913Y016142D02*X018976Y015079D01*Y014776D01*Y01348D01*
X017413Y011917D01*D27*X021457Y012953D02*X020626Y012122D01*D14*
Y012076D01*D27*Y010976D01*X021526Y010076D01*Y009055D01*Y008576D01*
X022402Y007795D01*Y007205D01*D14*X024963Y003013D01*X025Y002953D01*D27*
X024963Y003013D02*X022476Y007126D01*D14*Y007157D01*D21*X02187D01*D14*
X021526Y009055D02*X021475Y009106D01*D23*X021487Y008651D01*X016887D01*
X016875Y009106D01*D15*X01752Y015157D02*X017081Y014719D01*Y013788D01*
Y013107D02*Y012781D01*X016613Y012417D01*Y011317D01*X017013Y010917D01*
D14*X017055D01*D15*Y010065D01*X016955Y009965D01*X016339Y009348D01*
Y007677D01*Y006496D01*D14*D15*X017055Y010917D02*X017355D01*D14*
X017413D01*D15*X005512Y007177D02*Y007539D01*X006393Y00842D01*
X007793D01*X007874Y008339D01*Y008071D01*D14*X007835Y008031D01*D15*
Y007402D01*D16*X011417Y007177D02*X010889D01*D14*X010861Y007149D01*D15*
X016785Y000984D02*X015945D01*X013976Y002953D01*X005512Y010327D02*
Y011239D01*X005893Y01162D01*X007793D01*X007874Y011539D01*Y01122D01*D14*
X007835Y011181D01*D15*Y010551D01*D16*X02187Y006476D02*
X021375Y006471D01*D15*Y007151D01*X020795Y007157D01*X02087D01*D16*
X01987D01*X01912D01*X01837D01*X017919Y007136D01*X017719Y006976D01*D15*
X016679D01*D14*Y006136D01*X016639Y006096D01*D16*X010223D01*D14*
X010183Y006136D01*Y007136D01*X010143Y007176D01*D16*X009055Y00719D01*
X009055Y008071D01*X008555D01*D14*X009055Y00719D02*Y007177D01*D16*
Y008965D01*X010103Y008976D01*D14*X010183Y009056D01*Y011136D01*
X010103Y011216D01*D16*X008555Y01122D01*X011417Y010327D02*X011939D01*
D14*X011961Y010349D01*D16*X012395Y010784D01*X013975D01*D27*Y013975D01*
D14*X013976Y013976D01*X007087Y009646D02*X005512D01*D15*X002756D01*D14*
X002953D01*D15*X007835D02*X009055D01*X009843D01*X007087Y010551D02*
X006487D01*Y010851D01*D14*Y010551D01*D15*X006299Y010364D01*Y009986D01*
D14*X007087Y006496D02*X005512D01*D15*X004586D01*X003798Y007283D01*
X002953D01*X007835Y006496D02*X009055D01*X009843D01*D23*
X009661Y008449D02*X012161D01*X012818Y009106D01*X013975D01*X015675D01*
D14*X022323Y007283D02*X021966Y007173D01*X021386Y008493D02*
X021106Y008603D01*X021156Y008673D02*X021366Y008893D01*
X017086Y008683D02*X016906Y008893D01*X023866Y005163D02*
X024286Y004983D01*X023616Y004963D02*X023526Y004563D01*
X023536Y004953D02*X023546Y004673D01*X023646Y011953D02*
X023626Y012163D01*X023676Y011933D02*X023966Y011963D01*D22*
X013962Y011404D02*X013542Y011883D01*X014016Y011362D02*
X014398Y011913D01*X002791Y01116D02*X002511Y011878D01*X003024Y011036D02*
X003528Y011973D01*X00309Y005699D02*X003555Y004889D01*X002854Y005796D02*
X002406Y004983D01*X015669Y0089D02*X012723Y008892D01*X01554Y008707D02*
X012491Y008713D01*X015683Y009289D02*X014505Y009299D01*
X014474Y009137D01*X015578Y008701D02*X01568Y008895D01*X015688Y009312D01*
X013852Y01101D02*X013428Y011848D01*X01411Y011034D02*X01456Y011928D01*
D18*X008215Y006951D02*Y007711D01*
M02*