%FSTAX24Y24*%
%MOIN*%
%IN LAYER2.GBR *%
%ADD10C,0.0010*%
%ADD11C,0.0039*%
%ADD12C,0.0050*%
%ADD13C,0.0060*%
%ADD14C,0.0080*%
%ADD15C,0.0100*%
%ADD16C,0.0120*%
%ADD17C,0.0199*%
%ADD18C,0.0200*%
%ADD19C,0.0220*%
%ADD20C,0.0240*%
%ADD21C,0.0300*%
%ADD22C,0.0320*%
%ADD23C,0.0400*%
%ADD24C,0.0440*%
%ADD25C,0.0520*%
%ADD26C,0.0550*%
%ADD27C,0.0600*%
%ADD28C,0.0680*%
%ADD29C,0.0721*%
%ADD30C,0.0750*%
%ADD31C,0.0787*%
%ADD32C,0.0810*%
%ADD33C,0.0830*%
%ADD34C,0.0906*%
%ADD35C,0.0947*%
%ADD36C,0.0970*%
%ADD37C,0.0990*%
%ADD38C,0.1066*%
%ADD39C,0.1380*%
%ADD40C,0.5118*%
%ADD41C,0.5278*%
%ADD42O,0.1339X0.2165*%
%ADD43O,0.1499X0.2325*%
%ADD44R,0.0520X0.0520*%
%ADD45R,0.0680X0.0680*%
D12*X013189Y001772D02*G01X02185D01*Y016142D01*X003937D01*Y001772D01*
X013189D01*G36*G01X02185D01*Y016142D01*X003937D01*Y001772D01*
X013189D01*G37*
%LPC*%
D36*X019409Y012874D03*D38*X018268Y014173D03*D36*X020315Y012953D03*D38*
X017913Y016142D03*D37*X020906Y01374D03*D41*X025Y013976D03*D37*
X021457Y012953D03*D38*X021693Y016142D03*X01752Y015157D03*D29*
X019685Y016142D03*Y014173D03*D41*X013976Y002953D03*X002953Y013976D03*
Y002953D03*X025D03*D39*X008465D03*Y013976D03*D17*X026575Y008465D03*D19*
X021457Y01122D03*D28*X018413Y011917D03*D23*X016661Y010149D03*
X020161Y010249D03*X007571Y012598D03*D19*X006487Y010851D03*D41*
X013976Y013976D03*D23*X007571Y004528D03*D19*X006487Y007751D03*
X010861Y007149D03*X017726Y008026D03*D43*X017756Y00374D03*D23*
X015675Y009106D03*X016875D03*X009661Y008449D03*X008575Y008551D03*D35*
X018504Y000984D03*X020472D03*D43*X02122Y00374D03*D35*X019488Y000984D03*
D45*X018413Y010917D03*D28*X017413D03*Y011917D03*D23*X015675Y009303D03*
Y00891D03*X016856Y009303D03*Y00891D03*D30*X020906Y01374D02*
G01X025Y013976D01*D14*X021457Y01122D02*X019291D01*Y011811D01*
Y011917D01*X018413D01*D20*X016661Y010149D02*D22*X020061D01*
X020161Y010249D01*D20*X007571Y012598D02*D13*Y011935D01*
X006487Y010851D01*D16*X008728D01*X013976D01*Y013976D01*
X013971Y007751D01*X013976D01*D20*X006513D01*D13*X007571Y006693D01*
Y004528D01*D20*X006513Y007751D02*X006487D01*X013971D02*
X013969Y007749D01*X010861D01*Y007149D01*X017726Y008026D02*D16*
Y00377D01*D20*X017756Y00374D01*X015675Y009106D02*D24*X016875D01*
X009661Y008449D02*X008575Y008551D01*D18*X020472Y000984D02*Y002992D01*
X02122Y00374D01*X019488Y002008D01*Y000984D01*D14*X022376Y013623D02*
X022566Y013483D01*X022336Y014013D02*X022546Y014193D01*
X010696Y007693D02*X010816Y007553D01*X010906D02*X011056Y007713D01*
X013956Y007913D02*X013866Y007813D01*D27*X020866Y01378D02*
X022835Y01437D01*
%LPD*%
D32*X019409Y012874D03*D34*X018268Y014173D03*D32*X020315Y012953D03*D34*
X017913Y016142D03*D33*X020906Y01374D03*D40*X025Y013976D03*D33*
X021457Y012953D03*D34*X021693Y016142D03*D15*X02124D02*X02116D01*
X021373Y015822D02*X021316Y015765D01*X021693Y015689D02*Y015609D01*D34*
X01752Y015157D03*D15*X01784Y015478D02*X017896Y015534D01*
X01752Y01561D02*Y01569D01*X0172Y015478D02*X017143Y015534D01*
X017067Y015157D02*X016987D01*X0172Y014837D02*X017143Y014781D01*
X01752Y014705D02*Y014625D01*X01784Y014837D02*X017896Y014781D01*
X017972Y015157D02*X018052D01*D10*X019685Y016142D03*Y014173D03*D40*
X013976Y002953D03*X002953Y013976D03*Y002953D03*X025D03*D11*X008465D03*
Y013976D03*X026575Y008465D03*D20*X021457Y01122D03*D25*
X018413Y011917D03*D15*X018597Y012101D02*X018654Y012158D01*
X018413Y012177D02*Y012257D01*X01823Y012101D02*X018173Y012158D01*
X018153Y011917D02*X018073D01*X01823Y011733D02*X018173Y011677D01*
X018413Y011657D02*Y011577D01*X018597Y011733D02*X018654Y011677D01*
X018673Y011917D02*X018753D01*D20*X016661Y010149D03*X020161Y010249D03*
X007571Y012598D03*X006487Y010851D03*D40*X013976Y013976D03*D21*
X015786Y015786D02*X015842Y015842D01*X012167Y015786D02*X01211Y015842D01*
X011417Y013976D02*X011337D01*X012167Y012167D02*X01211Y01211D01*
X013976Y011417D02*Y011337D01*X015786Y012167D02*X015842Y01211D01*
X016535Y013976D02*X016615D01*D20*X007571Y004528D03*X006487Y007751D03*
X010861Y007149D03*X017726Y008026D03*D42*X017756Y00374D03*D15*
X018229Y004627D02*X018286Y004683D01*X017756Y004823D02*Y004903D01*
X017283Y004627D02*X017226Y004683D01*X017283Y002854D02*
X017226Y002797D01*X017756Y002657D02*Y002577D01*X018229Y002854D02*
X018286Y002797D01*D20*X015675Y009106D03*X016875D03*X009661Y008449D03*
X008575Y008551D03*D31*X018504Y000984D03*X020472D03*D42*X02122Y00374D03*
D15*X021694Y004627D02*X02175Y004683D01*X02122Y004823D02*Y004903D01*
X020747Y004627D02*X020691Y004683D01*X020747Y002854D02*
X020691Y002797D01*X02122Y002657D02*Y002577D01*X021694Y002854D02*
X02175Y002797D01*D31*X019488Y000984D03*D44*X018413Y010917D03*D25*
X017413D03*Y011917D03*D20*X015675Y009303D03*Y00891D03*
X016856Y009303D03*Y00891D03*D26*X020906Y01374D02*X025Y013976D01*D14*
X021457Y01122D02*X019291D01*Y011811D01*Y011917D01*X018413D01*
X016661Y010149D02*D16*X020061D01*X020161Y010249D01*D14*
X007571Y012598D02*D13*Y011935D01*X006487Y010851D01*D16*X008728D01*
X013976D01*Y013976D01*X013971Y007751D01*X013976D01*D20*X006513D01*D13*
X007571Y006693D01*Y004528D01*D14*D20*X006513Y007751D02*X006487D01*D14*
X013971D02*X013969Y007749D01*X010861D01*D20*Y007149D01*D14*
X017726Y008026D02*D16*Y00377D01*D14*X017756Y00374D01*X015675Y009106D02*
D20*X016875D01*X009661Y008449D02*X008575Y008551D01*D18*
X020472Y000984D02*Y002992D01*X02122Y00374D01*X019488Y002008D01*
Y000984D01*D14*X022376Y013623D02*X022566Y013483D01*X022336Y014013D02*
X022546Y014193D01*X010696Y007693D02*X010816Y007553D01*X010906D02*
X011056Y007713D01*X013956Y007913D02*X013866Y007813D01*D23*
X020866Y01378D02*X022835Y01437D01*
M02*