%FSTAX24Y24*%
%MOIN*%
%IN MASK1.GBR *%
%ADD10C,0.0070*%
%ADD11C,0.0099*%
%ADD12C,0.0300*%
%ADD13C,0.0560*%
%ADD14C,0.0580*%
%ADD15C,0.0591*%
%ADD16C,0.0847*%
%ADD17C,0.0870*%
%ADD18C,0.0890*%
%ADD19C,0.0966*%
%ADD20C,0.4784*%
%ADD21O,0.1399X0.2225*%
%ADD22R,0.0296X0.0532*%
%ADD23R,0.0410X0.0370*%
%ADD24R,0.0473X0.0485*%
%ADD25R,0.0485X0.0473*%
%ADD26R,0.0580X0.0580*%
%ADD27R,0.0721X0.0580*%
%ADD28R,0.0847X0.0651*%
D25*X01987Y006476D03*Y007157D03*D24*X007571Y012008D03*X00689D03*
X007571Y005118D03*X00689D03*X0221Y01122D03*X022781D03*D25*
X006299Y009305D03*Y009986D03*D24*X01702Y006496D03*X016339D03*
X010524Y009646D03*X009843D03*X010524Y006496D03*X009843D03*D25*
X006299Y006156D03*Y006837D03*X01837Y006476D03*Y007157D03*
X01912Y006476D03*Y007157D03*D23*X016339Y007677D03*X017126Y007303D03*
Y008051D03*D27*X013975Y010784D03*Y009106D03*D15*X022244Y000984D03*
X008465D03*Y015945D03*D17*X019409Y012874D03*D19*X018268Y014173D03*D17*
X020315Y012953D03*D19*X017913Y016142D03*D18*X020906Y01374D03*
X021457Y012953D03*D19*X021693Y016142D03*X01752Y015157D03*D10*
X019685Y016142D03*Y014173D03*D20*X013976Y002953D03*X002953Y013976D03*
Y002953D03*X013976Y013976D03*X025D03*Y002953D03*D11*X008465D03*
Y013976D03*X026575Y008465D03*D25*X017081Y013788D03*Y013107D03*
X005512Y007177D03*Y006496D03*X011417Y007177D03*Y006496D03*
X009055Y007177D03*Y006496D03*D24*X008555Y008071D03*X007874D03*D28*
X002953Y007283D03*Y006102D03*D24*X017467Y000984D03*X016785D03*D25*
X005512Y010327D03*Y009646D03*X02187Y006476D03*Y007157D03*
X02087Y006476D03*Y007157D03*X011417Y010327D03*Y009646D03*
X009055Y008965D03*Y009646D03*D24*X008555Y01122D03*X007874D03*D28*
X002953Y009646D03*Y010827D03*D22*X007087Y009646D03*X007461D03*
X007835D03*Y010551D03*X007461D03*X007087D03*Y006496D03*X007461D03*
X007835D03*Y007402D03*X007461D03*X007087D03*D13*X021457Y01122D03*D12*
X016661Y010149D03*X020161Y010249D03*X007571Y004528D03*Y012598D03*
X017726Y008026D03*X015675Y009106D03*X016875D03*X006487Y007751D03*
Y010851D03*X009661Y008449D03*X008575Y008551D03*X010861Y007149D03*D16*
X018504Y000984D03*X019488D03*X020472D03*D21*X02122Y00374D03*X017756D03*
D26*X018413Y010917D03*D14*X017413D03*X018413Y011917D03*X017413D03*
M02*