%FSTAX24Y24*%
%MOIN*%
%IN SPASTE1.GBR *%
%ADD10C,0.0400*%
%ADD11R,0.0236X0.0472*%
%ADD12R,0.0350X0.0310*%
%ADD13R,0.0413X0.0425*%
%ADD14R,0.0425X0.0413*%
%ADD15R,0.0661X0.0520*%
%ADD16R,0.0787X0.0591*%
D13*X007571Y012008D03*X00689D03*D16*X002953Y010827D03*D13*
X007571Y005118D03*X00689D03*D16*X002953Y006102D03*D13*X0221Y01122D03*
X022781D03*D14*X006299Y009305D03*Y006156D03*D13*X01702Y006496D03*
X017467Y000984D03*X010524Y006496D03*D14*X011417D03*X006299Y006837D03*
X01837Y006476D03*X01912D03*X01987D03*X02087D03*D12*X017126Y007303D03*
Y008051D03*D10*X022244Y000984D03*X008465D03*Y015945D03*D14*
X011417Y009646D03*D13*X010524D03*D14*X02187Y007157D03*
X017081Y013788D03*Y013107D03*D12*X016339Y007677D03*D13*Y006496D03*D14*
X005512Y007177D03*D13*X007874Y008071D03*D11*X007835Y007402D03*D14*
X011417Y007177D03*D13*X016785Y000984D03*D14*X005512Y010327D03*D13*
X007874Y01122D03*D11*X007835Y010551D03*D14*X02187Y006476D03*
X02087Y007157D03*X01987D03*X01912D03*X01837D03*D13*X008555Y008071D03*
D14*X009055Y007177D03*Y008965D03*D13*X008555Y01122D03*D14*
X011417Y010327D03*D15*X013975Y010784D03*D11*X007087Y009646D03*D14*
X005512D03*D16*X002953D03*D11*X007461D03*X007835D03*D14*X009055D03*D13*
X009843D03*D11*X007461Y010551D03*X007087D03*D14*X006299Y009986D03*D11*
X007087Y006496D03*D14*X005512D03*D16*X002953Y007283D03*D11*
X007461Y006496D03*X007835D03*D14*X009055D03*D13*X009843D03*D11*
X007461Y007402D03*X007087D03*D15*X013975Y009106D03*
M02*